<?xml version="1.0" encoding="utf-8"?>
<!-- Generator: Adobe Illustrator 24.1.1, SVG Export Plug-In . SVG Version: 6.00 Build 0)  -->
<svg version="1.1" xmlns="http://www.w3.org/2000/svg" xmlns:xlink="http://www.w3.org/1999/xlink" x="0px" y="0px"
	 viewBox="0 0 1440 1024" style="enable-background:new 0 0 1440 1024;" xml:space="preserve">
<style type="text/css">
	.st0{clip-path:url(#SVGID_2_);fill:#3E7E70;}
	.st1{clip-path:url(#SVGID_2_);}
	.st2{fill:#00B2C6;}
	.st3{fill:#81CCDF;}
	.st4{fill:#00A8B7;}
	.st5{fill:#E3E3E2;}
	.st6{fill:#FFFFFF;}
	.st7{fill:#F5FAFE;}
	.st8{fill:#515965;}
	.st9{fill:#F087AD;}
	.st10{fill:#4D4D4D;}
	.st11{fill:#F29EC2;}
	.st12{fill:#ED6BA2;}
	.st13{fill:#FED285;}
	.st14{opacity:0.49;}
	.st15{fill:#F6AB7F;}
	.st16{fill:#71A598;}
	.st17{clip-path:url(#SVGID_4_);fill:#3E7E70;}
	.st18{clip-path:url(#SVGID_4_);}
</style>
<g id="Layer_1">
	<g>
		<defs>
			<rect id="SVGID_1_" x="-240.4" width="1024" height="1024"/>
		</defs>
		<clipPath id="SVGID_2_">
			<use xlink:href="#SVGID_1_"  style="overflow:visible;"/>
		</clipPath>
		<rect x="-240.4" class="st0" width="1024" height="1024"/>
		<g class="st1">
			<g>
				<g>
					<g>
						<path class="st2" d="M120.9,964.6c-9,1.8-17.3,5.2-24.6,9.8c6,1.1,11.7,2.9,17.1,5.4c5.6,2.6,10.8,5.9,15.5,9.8
							c4.3,3.5,8.1,7.6,11.5,12c3.4,4.5,6.2,9.4,8.5,14.7c1.9,4.4,3.3,9.1,4.3,13.9c0.2,0.9,0.4,1.9,0.5,2.8
							c1,6.6,1.1,13.2,0.3,19.5c-0.6,5.2-1.9,10.3-3.6,15.1c-2.3,6.4-5.5,12.4-9.5,17.9c-5.1,7-11.6,13.2-19.1,18
							c8.5,1.6,17.5,1.6,26.5-0.2c38.4-7.6,63.5-44.8,55.9-83.1C196.7,982,159.4,957,120.9,964.6z"/>
						<path class="st3" d="M140.5,1001.8c3.4,4.5,6.2,9.5,8.5,14.8c4.6-3.6,14.5-9.7,28-8.4C176.9,1008.2,168.8,993.9,140.5,1001.8z
							"/>
						<path class="st3" d="M113.5,979.9c5.6,2.6,10.8,5.9,15.5,9.8c4.9-3.2,12.7-6.9,22.8-7.1C151.8,982.6,135,966,113.5,979.9z"/>
					</g>
					<path class="st2" d="M343.4,961.7l99,5.2c0,0,23-81.1-79.8-115.9c0,0,3.4,8,6.7,19.8c7.1,25.2,14,67.6-13.2,85.3
						C352.5,958.4,348.3,960.3,343.4,961.7z"/>
					<path class="st4" d="M356.1,956.1l41.7,2.2c0,0,14-49.2-28.5-87.5C376.5,896,383.3,938.4,356.1,956.1z"/>
					<path class="st3" d="M176.6,1022.5c-1.5,1.3-0.4,3.8,1.6,3.6c20.6-2.3,88-6.6,143.2,25.1c37.7,21.6,78.8,43.4,132.2,36.5
						c12.6-1.6,25.9-5.5,40.1-12.5c13.5-6.6,27.9-16.1,43.3-29.1c-11.9-43.2-55.4-106.7-137.8-111.4
						C288.6,928.4,197.8,1003.4,176.6,1022.5z"/>
					<path class="st5" d="M435.1,1017.8c0,0,1.7,15.1,5.2,31.8c3,14.2,7.4,29.5,13.2,37.9c8.1-1.1,16.5-3,25.2-6.1
						c4.8-1.7,9.7-3.8,14.7-6.2c0.1,0,0.2-0.1,0.3-0.1c-0.1,0-0.1-0.1-0.2-0.1C479,1068.3,446.2,1049.9,435.1,1017.8z"/>
					<path class="st6" d="M449.2,1050.1c2.2,4.1-1.4,11-1.4,11c7.9,0.4,8.8-2.7,8.8-2.7c3.7,4.1-2.1,10.1-2.1,10.1
						c7.6,5.9,14.9,0.8,14.9,0.8c1.3,5.6-4.6,11.6-4.6,11.6c11.8-0.2,14.5-6.3,14.5-6.3c0.2,2.5-0.2,4.9-0.7,6.9
						c-0.6,2.3-1.4,3.9-1.4,4c11.6-3.9,15.1-7.8,16.1-10.2c0-0.1,0.1-0.1,0.1-0.2c-14.5-6.7-47.3-25.1-58.4-57.2
						c0,0,1.7,15.1,5.2,31.8L449.2,1050.1z"/>
					<path class="st7" d="M239.1,994.5c3.1-1.7,6.2-3.2,9.4-4.7c3.2-1.5,6.3-2.9,9.5-4.3c6.4-2.8,12.9-5.3,19.4-7.6
						c6.5-2.4,13.1-4.5,19.8-6.4c6.6-2,13.3-3.7,20.1-5.2c6.7-1.5,13.6-2.5,20.4-3.4l5.1-0.6c1.7-0.3,3.4-0.5,5.1-0.7
						c1.7-0.2,3.4-0.5,5.1-0.8c1.7-0.2,3.4-0.5,5.1-0.8c1.7-0.3,3.4-0.5,5.1-0.8c1.7-0.3,3.4-0.6,5.1-0.8l10.2-1.6
						c6.9-1.1,13.8-2,20.9-3.5l0.1-1.3c-6.9-2.2-14-3.6-21.2-4.3c-3.6-0.4-7.2-0.5-10.8-0.7c-3.6,0-7.2,0-10.8,0.2
						c-7.2,0.4-14.3,1.5-21.3,3.2c-7,1.8-13.8,3.9-20.7,5.9c-6.8,2.1-13.6,4.5-20.2,7c-6.6,2.6-13.1,5.5-19.5,8.5
						c-6.4,3.1-12.7,6.4-18.8,9.9c-6.1,3.6-12.1,7.3-17.8,11.5L239.1,994.5z"/>
					<path class="st8" d="M482.4,1010.5c1.1-3.2,0.9-6.6-0.1-9.8c-1-3.2-2.9-6.3-5.5-8.6c-2.6-2.4-6-3.9-9.4-4.4
						c-3.4-0.4-6.8,0-9.7,1.6c3.1,1.4,5.7,2.5,8.1,3.8c2.4,1.3,4.4,2.7,6.3,4.3c1.8,1.7,3.6,3.6,5.2,5.7
						C478.9,1005.3,480.5,1007.7,482.4,1010.5z"/>
				</g>
				<g>
					<g>
						<path class="st2" d="M120.9-59.4c-9,1.8-17.3,5.2-24.6,9.8c6,1.1,11.7,2.9,17.1,5.4c5.6,2.6,10.8,5.9,15.5,9.8
							c4.3,3.5,8.1,7.6,11.5,12c3.4,4.5,6.2,9.4,8.5,14.7c1.9,4.4,3.3,9.1,4.3,13.9c0.2,0.9,0.4,1.9,0.5,2.8
							c1,6.6,1.1,13.2,0.3,19.5c-0.6,5.2-1.9,10.3-3.6,15.1c-2.3,6.4-5.5,12.4-9.5,17.9c-5.1,7-11.6,13.2-19.1,18
							c8.5,1.6,17.5,1.6,26.5-0.2c38.4-7.6,63.5-44.8,55.9-83.1S159.4-67,120.9-59.4z"/>
						<path class="st3" d="M150.4,44c-2.3,6.4-5.5,12.4-9.5,17.9c10.4-0.1,27.3-2.9,37.9-18.7C178.9,43.2,162.4,50.6,150.4,44z"/>
						<path class="st3" d="M153.7,9.3c1,6.6,1.1,13.2,0.3,19.6c6.6,0.5,22.9,0.2,29.1-13C183.1,15.9,162.5,17.9,153.7,9.3z"/>
					</g>
					<path class="st4" d="M413.3,15.7c1.3,2,2.1,4.3,2.6,6.6c2.7,13.7-4.2,25.4-15.5,32.8c-21.2,13.9-12.8,33.2-12.8,33.3
						c-26.6-19.5-31.7-53.6-1.7-73.5c3.5-2.3,7.2-4.4,11.4-5.2c4.1-0.9,8.6-0.4,12.1,1.9C410.9,12.6,412.2,14,413.3,15.7z"/>
					<path class="st3" d="M176.6-1.5c-1.5,1.3-0.4,3.8,1.6,3.6c20.6-2.3,88-6.6,143.2,25.1c37.7,21.6,78.8,43.4,132.2,36.5
						c12.6-1.6,25.9-5.5,40.1-12.5C507.3,44.5,521.6,35,537,22C525.1-21.2,481.6-84.7,399.3-89.4C288.6-95.6,197.8-20.6,176.6-1.5z"
						/>
					<path class="st2" d="M385.4,20.5c1.3,2,2.1,4.3,2.6,6.6c2.7,13.7-4.2,25.4-15.5,32.8c-21.2,13.9-12.8,33.2-12.8,33.3
						C333.1,73.6,328,39.6,358,19.7c3.5-2.3,7.2-4.4,11.4-5.2c4.1-0.9,8.6-0.4,12.1,1.9C383,17.5,384.4,18.9,385.4,20.5z"/>
					<path class="st5" d="M435.1-6.2c0,0,1.7,15.1,5.2,31.8c3,14.2,7.4,29.5,13.2,37.9c8.1-1.1,16.5-3,25.2-6.1
						c4.8-1.7,9.7-3.8,14.7-6.2c0.1,0,0.2-0.1,0.3-0.1c-0.1,0-0.1-0.1-0.2-0.1C479,44.3,446.2,25.9,435.1-6.2z"/>
					<path class="st6" d="M449.2,26.1c2.2,4.1-1.4,11-1.4,11c7.9,0.4,8.8-2.7,8.8-2.7c3.7,4.1-2.1,10.1-2.1,10.1
						c7.6,5.9,14.9,0.8,14.9,0.8c1.3,5.6-4.6,11.6-4.6,11.6c11.8-0.2,14.5-6.3,14.5-6.3c0.2,2.5-0.2,4.9-0.7,6.9
						c-0.6,2.3-1.4,3.9-1.4,4c11.6-3.9,15.1-7.8,16.1-10.2c0-0.1,0.1-0.1,0.1-0.2c-14.5-6.7-47.3-25.1-58.4-57.2
						c0,0,1.7,15.1,5.2,31.8L449.2,26.1z"/>
					<path class="st2" d="M510.6,5.1c0.2,1.8,0.7,3.5,1.3,5.2c0.3,0.8,0.6,1.7,1,2.5c0.4,0.8,0.8,1.6,1.2,2.4
						c0.4,0.8,0.8,1.7,1.3,2.5c0.3,0.4,0.5,0.8,0.9,1.2c0.3,0.3,0.8,0.6,1.2,0.9c0.4,0.2,0.9,0.4,1.4,0.6c0.5,0.2,1,0.3,1.6,0.3
						c0.6,0,1.1,0,1.7-0.1c0.6-0.1,1.2-0.3,1.8-0.6l0.2-0.7c-0.2-0.7-0.4-1.1-0.6-1.6c-0.2-0.4-0.3-0.9-0.5-1.3
						c-0.2-0.4-0.3-0.8-0.5-1.1c-0.2-0.3-0.4-0.6-0.5-1c-0.4-0.6-0.9-1.1-1.6-1.5c-0.7-0.4-1.4-0.7-2-1.3c-0.6-0.5-1.2-1-1.8-1.6
						c-0.6-0.5-1.2-1.1-1.8-1.7c-1.2-1.1-2.4-2.4-3.6-3.6L510.6,5.1z"/>
				</g>
				<g>
					<g>
						<path class="st9" d="M733.6,308c1.8-0.3,3.6-0.6,5.3-0.7c1.4-0.1,2.8,0.7,3.3,2c0.6,1.6-0.6,2.8-1.7,3.8
							c-12,10.8-26,23-23.7,40.8c1.1,8.5,5.4,16.4,10.8,23.1c10,12.4,41.4,31.7,59.2,12.1c5.1-5.6,10.8-10.9,16.2-16.2
							c12.7-12.3,26.3-23.7,40.7-34c19.6-14.1,43.8-24,67.5-19.8c15.2,2.7,28.9,11,40.6,21c9.7,8.4,18.4,18.3,24,29.9
							c6.4,13.4,8.4,28.7,7,43.5c-1.6,17.7-8.1,35-19.4,48.7c-11.8,14.3-28.4,24-45.8,30.3c-15.5,5.6-31.4,9.1-47.5,11.7
							c-16.4,2.7-23.2,22.7-11.8,34.8c0.1,0.1,0.2,0.2,0.2,0.3c8.1,8.4,18.6,14.1,29.5,18.2c8.7,3.3,18.5,5.6,27.3,2.6
							c12-4.1,20.8-17.8,24.9-29.2c0.6-1.6,1.1-3.3,1.5-4.9c0.3-1.2,1.2-2.2,2.4-2.4c1.6-0.3,3.2,0.6,3.7,2.2c0.6,1.9,1,3.9,1.2,5.9
							c0.8,5.8,0.5,11.7-0.7,17.6c-1.2,5.9-3.3,11.7-6.6,17.3c-8.3,14-22.9,22.3-39,23.6c-13.6,1.1-27.3-2.6-39.5-8.7
							c-14.7-7.3-27.7-18.4-35.6-32.8c-6.2-11.2-8.9-24-7-36.7c0.5-3.4,1.3-6.7,1.1-10.1c-0.4-4.3-2.5-8.3-4.6-12.1
							c-7.5-13.8-15.2-27.5-22.8-41.3c-2.7-4.9-6.3-15.9-11.1-18.7c-4.7-2.7-11.5,0.4-16.5,0.6c-6.7,0.3-13.3-0.7-19.7-2.7
							c-13.5-4.1-25.6-12.4-35.4-22.5c-14.9-15.4-25.6-36.9-21.2-57.9C694.9,327.3,713.3,311.9,733.6,308z"/>
						<path class="st9" d="M858.7,429.1c-2.9,1-5.6,2.4-8.3,3.9c-2.7,1.5-5.3,3.1-7.8,4.8c-5.1,3.5-9.9,7.4-14.4,11.7
							c-4.5,4.3-8.7,9-12.5,14c-3.8,5-7.3,10.4-10.2,16.1c-6,11.4-10.1,24-12,37.1l-0.2,1.2l-0.1,1.2c-0.1,0.8-0.2,1.6-0.3,2.5
							l-0.2,2.5c-0.1,0.8-0.1,1.6-0.2,2.5l-0.1,2.5c0,0.8,0,1.6,0,2.5c0,0.8,0,1.6,0,2.5l0,2.5l0,1.2l0.1,1.2l0.1,2.5
							c0.1,1.6,0.3,3.3,0.4,4.9c0.4,3.3,0.9,6.5,1.5,9.7c0.3,1.6,0.6,3.2,1,4.8l0.5,2.4l0.6,2.4c0.2,0.8,0.4,1.6,0.6,2.3l0.7,2.3
							l0.7,2.2c0.2,0.6,0.4,1.2,0.6,1.9c0.8,2.5,1.5,5,2.1,7.4c0.2,0.6,0.3,1.2,0.5,1.8l0.4,1.8l0.4,1.8c0.1,0.6,0.3,1.2,0.4,1.8
							l0.3,1.8c0.1,0.6,0.2,1.2,0.3,1.8c0.2,1.2,0.3,2.4,0.5,3.6c0.1,0.6,0.1,1.2,0.1,1.8l0.1,0.9l0,0.9c0,0.6,0.1,1.2,0.1,1.7
							l0,1.7c0,4.6-0.5,9-1.7,13.2c-1.2,4.2-3.1,8.2-5.8,12c-2.7,3.8-6.2,7.3-10.3,10.5c-4.1,3.2-8.9,6.1-13.9,8.6
							c-2.5,1.3-5.2,2.5-7.9,3.6c0,0-0.1,0-0.1,0c-2.3,1-1.9,4.4,0.7,4.7c0,0,0.1,0,0.1,0c3.1,0.3,6.2,0.4,9.3,0.3
							c6.2-0.2,12.6-1.3,18.9-3.3c6.3-2.1,12.5-5.2,18-9.7c2.8-2.2,5.4-4.8,7.7-7.6c2.3-2.8,4.4-5.9,6.1-9.1
							c1.8-3.2,3.2-6.7,4.3-10.1c1.1-3.5,1.9-7,2.4-10.5c0.5-3.5,0.8-7,0.9-10.5c0.1-3.4-0.1-6.9-0.4-10.2
							c-0.6-6.7-1.9-13.2-3.5-19.4l-1.2-4.3l-0.5-1.9c-0.2-0.6-0.3-1.3-0.5-1.9l-0.5-1.9l-0.4-1.9c-0.1-0.6-0.3-1.3-0.4-1.9
							c-0.1-0.6-0.2-1.3-0.4-1.9c-0.3-1.3-0.5-2.5-0.7-3.8c-0.2-1.3-0.4-2.5-0.6-3.8c-0.2-1.3-0.3-2.5-0.5-3.8l-0.2-1.9l-0.1-0.9
							l-0.1-0.9c-0.4-5.1-0.5-10.1-0.2-15.2l0.1-1.9l0.1-1.9c0.1-1.3,0.2-2.5,0.3-3.8c0.3-2.5,0.6-5.1,1-7.6
							c0.1-0.6,0.2-1.3,0.3-1.9c0.1-0.6,0.2-1.3,0.4-1.9l0.4-1.9c0.1-0.6,0.3-1.3,0.4-1.9c0.6-2.5,1.2-5.1,2-7.6
							c0.4-1.3,0.8-2.5,1.1-3.8c0.4-1.3,0.8-2.5,1.3-3.8c0.9-2.5,1.8-5.1,2.8-7.6c2-5,4.3-10.1,6.9-15.1c2.5-5,5.3-10,8.3-14.9
							c1.5-2.5,3.1-4.9,4.7-7.4C855.2,434,856.9,431.5,858.7,429.1z"/>
						<path class="st9" d="M868.1,391.7c-0.4,3.3-1.1,6.5-1.9,9.7c-0.9,3.2-1.9,6.3-3,9.4c-2.3,6.2-5.2,12.2-8.6,18
							c-3.3,5.8-7.2,11.4-11.5,16.6c-4.3,5.3-9.1,10.3-14.3,14.8c-10.4,9.2-22.5,16.7-35.7,21.9l-1.2,0.5l-1.2,0.5
							c-0.8,0.3-1.7,0.6-2.5,0.9l-2.5,0.8c-0.8,0.3-1.7,0.6-2.5,0.8l-2.6,0.8c-0.9,0.3-1.7,0.4-2.6,0.7c-0.9,0.2-1.7,0.4-2.6,0.6
							l-2.6,0.6l-1.3,0.3l-1.3,0.2l-2.6,0.5c-1.7,0.3-3.5,0.5-5.2,0.8c-3.5,0.4-7,0.8-10.5,0.9c-1.8,0.1-3.5,0.2-5.3,0.2l-2.6,0
							l-2.6,0c-0.9,0-1.7,0-2.6-0.1L736,491l-2.5-0.1c-0.7,0-1.4-0.1-2.1-0.1c-2.8-0.2-5.6-0.3-8.3-0.3c-0.7,0-1.4,0-2,0l-2,0
							l-2,0.1c-0.7,0-1.3,0-2,0.1l-2,0.1c-0.7,0-1.3,0.1-2,0.2c-1.3,0.1-2.6,0.3-3.9,0.4c-0.6,0.1-1.3,0.2-1.9,0.3l-0.9,0.1
							l-0.9,0.2c-0.6,0.1-1.2,0.2-1.9,0.4l-1.8,0.4c-4.8,1.2-9.3,2.8-13.3,5.1c-4.1,2.3-7.8,5.3-11.1,9.1c-3.3,3.8-6.1,8.4-8.4,13.5
							c-2.3,5.1-4.1,10.8-5.5,16.8c-0.7,3-1.3,6-1.8,9.1c0,0,0,0.1,0,0.1c-0.4,2.7-4.2,3.1-5.1,0.5c0,0,0-0.1,0-0.1
							c-1.1-3.1-2-6.4-2.6-9.7c-1.3-6.6-1.9-13.5-1.3-20.6c0.6-7.1,2.3-14.4,5.5-21.3c1.6-3.5,3.6-6.8,6-10c2.4-3.2,5-6.1,8-8.8
							c2.9-2.7,6.2-5,9.5-7.1c3.4-2,6.8-3.8,10.4-5.2c3.5-1.5,7.1-2.6,10.7-3.6c3.6-0.9,7.2-1.7,10.8-2.2c7.2-1.1,14.3-1.4,21.2-1.3
							l4.8,0.1l2.1,0.1c0.7,0,1.4,0,2.1,0l2.1,0l2.1,0c0.7,0,1.4,0,2.1-0.1c0.7,0,1.4-0.1,2.1-0.1c1.4,0,2.8-0.2,4.1-0.3
							c1.4-0.1,2.7-0.3,4.1-0.4c1.4-0.2,2.7-0.3,4.1-0.5l2-0.3l1-0.1l1-0.2c5.4-0.9,10.7-2.1,16-3.6l2-0.6l2-0.6
							c1.3-0.4,2.6-0.9,3.9-1.3c2.6-1,5.2-1.9,7.7-3c0.6-0.3,1.3-0.5,1.9-0.8c0.6-0.3,1.3-0.6,1.9-0.9l1.9-0.9
							c0.6-0.3,1.3-0.6,1.9-0.9c2.5-1.2,5-2.6,7.5-4c1.2-0.7,2.5-1.4,3.7-2.2c1.2-0.8,2.4-1.5,3.7-2.3c2.4-1.6,4.8-3.2,7.2-4.9
							c4.8-3.4,9.4-7.1,14-11c4.6-3.9,9.1-8.1,13.5-12.5c2.2-2.2,4.4-4.5,6.6-6.8C863.8,396.6,865.9,394.2,868.1,391.7z"/>
						<path class="st9" d="M875,423.2c-2.8,0.6-5.5,1.5-8.2,2.3c-2.7,0.9-5.3,1.9-7.9,2.9c-5.2,2.1-10.4,4.4-15.4,6.9
							c-5,2.5-9.9,5.3-14.7,8.2c-2.4,1.5-4.8,3-7.1,4.6c-2.3,1.6-4.7,3.2-6.9,4.9c-9.1,6.8-17.8,14.4-25.7,23.1
							c-3.9,4.4-7.7,9-11.1,13.9c-1.7,2.5-3.4,5-5,7.7c-0.4,0.7-0.8,1.3-1.2,2l-1.1,2c-0.4,0.7-0.7,1.4-1.1,2.1
							c-0.4,0.7-0.7,1.4-1.1,2.1c-1.4,2.8-2.6,5.8-3.7,8.8L764,517c-0.3,0.8-0.5,1.6-0.7,2.3l-0.4,1.2l-0.3,1.2l-0.3,1.2l-0.2,0.6
							l-0.1,0.4c-0.5,2.1-1.1,4.1-1.8,6.1c-0.7,2-1.5,4-2.4,6c-3.5,7.8-8.8,15.2-15.4,22.1c-6.6,6.9-14.5,13.2-23.1,19.1
							c-4.3,2.9-8.8,5.8-13.5,8.6c-2.4,1.4-4.7,2.8-7.2,4.1c-2.2,1.2-1.4,4.6,1.2,4.6c0,0,0.1,0,0.1,0c2.9,0,5.7-0.1,8.6-0.3
							c5.7-0.5,11.4-1.4,17-2.7c5.6-1.4,11.2-3.2,16.7-5.5c5.5-2.3,10.8-5.1,15.9-8.5c5.1-3.4,10-7.4,14.4-11.9
							c2.2-2.3,4.3-4.7,6.3-7.3c2-2.6,3.8-5.3,5.5-8.1c3.3-5.6,5.9-11.8,7.8-18.1l0.5-1.7l0.2-0.8l0.3-0.8c0.2-0.5,0.3-1,0.5-1.5
							l0.6-1.5c0.8-2.1,1.7-4.1,2.7-6.2c4-8.2,9.2-16.4,15.1-24.4c5.9-8,12.5-15.9,19.3-23.8c6.9-7.9,14-15.7,21.3-23.7l11-12.1
							C867.5,431.6,871.3,427.5,875,423.2z"/>
						<path class="st9" d="M874.6,437.9c1.4,0.2,2.1-1.6,1-2.4v0c-19.8-14.5-45.6-20.7-69.9-18.3c-19.4,1.9-38.1,9.2-57.6,9.1
							c-26.1,0-51.5-14-66.4-35.4c-13.8-19.6-18.6-44.9-14.6-68.5c0.5-2.9-3.3-4.4-4.9-2c0,0,0,0,0,0.1
							c-11.3,17.4-15.6,39.2-12.3,59.7c3.3,20.5,14.1,39.7,29.6,53.5c13.9,12.4,31.6,20.7,50.1,23.3c22.6,3.2,45.2-1.9,66.5-8.9
							c21.6-7.1,40.6-13.3,63.8-11.7c3.3,0.2,6.6,0.5,9.9,0.9C871.3,437.4,872.9,437.6,874.6,437.9z"/>
					</g>
					<path class="st6" d="M847,472.6c7.4,11.3,35.8,13.3,45.4-1.1c9.6-14.4-8.2-34-25.1-27.8C850.4,450,840.6,462.9,847,472.6z"/>
					<circle class="st10" cx="856.6" cy="464.3" r="9.1"/>
					<path class="st6" d="M817.9,418.7c-5.3-12.4,8.5-37.2,25.8-37.4s23.9,25.5,9.4,36.2C838.6,428.3,822.5,429.4,817.9,418.7z"/>
					<circle class="st10" cx="830.1" cy="415.2" r="9.1"/>
					
						<ellipse transform="matrix(0.8798 -0.4754 0.4754 0.8798 -63.8111 488.5356)" class="st11" cx="934" cy="370.4" rx="8.2" ry="14.9"/>
					
						<ellipse transform="matrix(0.8798 -0.4754 0.4754 0.8798 -78.7064 502.1863)" class="st11" cx="953.6" cy="406.7" rx="6.8" ry="12.3"/>
					
						<ellipse transform="matrix(0.8798 -0.4754 0.4754 0.8798 -52.2162 491.6252)" class="st11" cx="945.9" cy="349.1" rx="6.8" ry="12.3"/>
					
						<ellipse transform="matrix(0.8798 -0.4754 0.4754 0.8798 -67.1063 501.9774)" class="st11" cx="958.9" cy="383.7" rx="4.9" ry="8.9"/>
					
						<ellipse transform="matrix(0.8798 -0.4754 0.4754 0.8798 -57.7946 502.4547)" class="st11" cx="964.5" cy="365.5" rx="3.8" ry="6.8"/>
					
						<ellipse transform="matrix(0.8798 -0.4754 0.4754 0.8798 -65.1387 509.2021)" class="st11" cx="974.2" cy="383.4" rx="3.8" ry="6.8"/>
					
						<ellipse transform="matrix(0.8798 -0.4754 0.4754 0.8798 -75.1009 512.5915)" class="st11" cx="975.9" cy="404.8" rx="4.9" ry="8.9"/>
					
						<ellipse transform="matrix(0.639 -0.7692 0.7692 0.639 -120.8236 851.7255)" class="st12" cx="847" cy="554.6" rx="6.5" ry="11"/>
					
						<ellipse transform="matrix(0.4442 -0.8959 0.8959 0.4442 -23.2562 975.8369)" class="st12" cx="774.8" cy="506.7" rx="11" ry="6.5"/>
					
						<ellipse transform="matrix(0.4442 -0.8959 0.8959 0.4442 -25.3981 1101.5848)" class="st12" cx="875.1" cy="571.3" rx="6.5" ry="11"/>
					
						<ellipse transform="matrix(0.998 -6.288365e-02 6.288365e-02 0.998 -34.8012 58.0399)" class="st12" cx="904.7" cy="581.9" rx="8.8" ry="5.2"/>
					
						<ellipse transform="matrix(0.286 -0.9582 0.9582 0.286 -9.0631 1214.239)" class="st12" cx="810.2" cy="613.2" rx="7.2" ry="4.2"/>
					
						<ellipse transform="matrix(0.4442 -0.8959 0.8959 0.4442 -117.9341 1064.0322)" class="st12" cx="798.6" cy="627.1" rx="7.2" ry="4.2"/>
					
						<ellipse transform="matrix(0.8554 -0.518 0.518 0.8554 -218.3284 502.238)" class="st12" cx="790.2" cy="642.1" rx="5.8" ry="3.4"/>
					
						<ellipse transform="matrix(0.8554 -0.518 0.518 0.8554 -191.7686 463.7603)" class="st12" cx="734.6" cy="575.3" rx="5.8" ry="3.4"/>
					
						<ellipse transform="matrix(0.8554 -0.518 0.518 0.8554 -158.8966 422.8601)" class="st12" cx="677.8" cy="496" rx="5.8" ry="3.4"/>
					
						<ellipse transform="matrix(0.9164 -0.4002 0.4002 0.9164 -100.3958 296.0055)" class="st12" cx="658.6" cy="388.4" rx="4" ry="6.8"/>
					
						<ellipse transform="matrix(7.581805e-02 -0.9971 0.9971 7.581805e-02 276.9557 1020.9269)" class="st12" cx="689.2" cy="361.1" rx="6.8" ry="4"/>
					
						<ellipse transform="matrix(7.581805e-02 -0.9971 0.9971 7.581805e-02 299.8772 1020.1646)" class="st12" cx="700.3" cy="348.3" rx="6.8" ry="4"/>
					
						<ellipse transform="matrix(0.9936 -0.113 0.113 0.9936 -37.911 75.7229)" class="st12" cx="648.8" cy="372.2" rx="3.4" ry="5.8"/>
					
						<ellipse transform="matrix(0.9936 -0.113 0.113 0.9936 -36.1394 76.4038)" class="st12" cx="655.7" cy="356.9" rx="3.4" ry="5.8"/>
					
						<ellipse transform="matrix(0.7139 -0.7002 0.7002 0.7139 -23.4953 590.0241)" class="st12" cx="710.3" cy="323.8" rx="5.8" ry="3.4"/>
					
						<ellipse transform="matrix(0.5669 -0.8238 0.8238 0.5669 27.7346 719.272)" class="st12" cx="697.9" cy="333.3" rx="5.8" ry="3.4"/>
					
						<ellipse transform="matrix(0.4894 -0.8721 0.8721 0.4894 -107.0275 845.5497)" class="st12" cx="668.5" cy="514.2" rx="5.8" ry="3.4"/>
					
						<ellipse transform="matrix(0.8554 -0.518 0.518 0.8554 -196.3008 456.0768)" class="st12" cx="718.6" cy="579.6" rx="5.8" ry="3.4"/>
					
						<ellipse transform="matrix(0.2101 -0.9777 0.9777 0.2101 122.8228 1330.2592)" class="st12" cx="884.6" cy="589.1" rx="5.2" ry="8.8"/>
					
						<ellipse transform="matrix(0.4442 -0.8959 0.8959 0.4442 -41.8 1086.1071)" class="st12" cx="854.4" cy="576.7" rx="5.2" ry="8.8"/>
					
						<ellipse transform="matrix(0.5242 -0.8516 0.8516 0.5242 -85.8606 898.7027)" class="st12" cx="761.4" cy="526.2" rx="8.8" ry="5.2"/>
					
						<ellipse transform="matrix(0.9998 -2.007856e-02 2.007856e-02 0.9998 -9.7016 14.8875)" class="st12" cx="736.5" cy="490.6" rx="8.8" ry="5.2"/>
					
						<ellipse transform="matrix(0.2025 -0.9793 0.9793 0.2025 123.1236 1038.5397)" class="st12" cx="699.2" cy="443.7" rx="5.8" ry="9.9"/>
					
						<ellipse transform="matrix(0.9998 -2.007856e-02 2.007856e-02 0.9998 -9.5471 14.5123)" class="st12" cx="717.9" cy="482.7" rx="8.8" ry="5.2"/>
					
						<ellipse transform="matrix(0.6789 -0.7342 0.7342 0.6789 -93.915 639.2145)" class="st12" cx="683.8" cy="427" rx="5.2" ry="8.8"/>
					
						<ellipse transform="matrix(0.8554 -0.518 0.518 0.8554 -118.9869 403.3869)" class="st12" cx="662.9" cy="414.8" rx="5.2" ry="8.8"/>
					
						<ellipse transform="matrix(0.8554 -0.518 0.518 0.8554 -103.2236 424.6084)" class="st12" cx="708.8" cy="397.2" rx="5.2" ry="8.8"/>
					
						<ellipse transform="matrix(0.943 -0.3329 0.3329 0.943 -84.2031 255.1973)" class="st12" cx="702.7" cy="373.3" rx="5.2" ry="8.8"/>
					
						<ellipse transform="matrix(0.943 -0.3329 0.3329 0.943 -124.6307 260.2625)" class="st12" cx="697.3" cy="493.9" rx="8.8" ry="5.2"/>
					
						<ellipse transform="matrix(0.5242 -0.8516 0.8516 0.5242 -103.5612 909.3427)" class="st12" cx="762" cy="547.4" rx="8.8" ry="5.2"/>
					
						<ellipse transform="matrix(0.7501 -0.6614 0.6614 0.7501 -182.4086 631.3594)" class="st12" cx="744.1" cy="557" rx="8.8" ry="5.2"/>
					
						<ellipse transform="matrix(0.943 -0.3329 0.3329 0.943 -141.2882 297.828)" class="st12" cx="798.6" cy="561.3" rx="5.8" ry="9.8"/>
					
						<ellipse transform="matrix(0.943 -0.3329 0.3329 0.943 -150.0317 301.0728)" class="st12" cx="803.7" cy="588.4" rx="5.8" ry="9.8"/>
					
						<ellipse transform="matrix(0.7501 -0.6614 0.6614 0.7501 -143.5692 755.6364)" class="st12" cx="928" cy="567.8" rx="7.1" ry="4.2"/>
				</g>
			</g>
			<g>
				<g>
					<path class="st13" d="M478.3,447c-1.9,1.5-4.3,2-6.5,1.2l-24.6-8.7c-5.6-2-10.9,3.9-8.9,9.9l8.5,26.5c0.8,2.4,0.4,5.1-1,7.1
						l-15.3,22.7c-3.5,5.2,0,12.4,5.9,12.3l25.9-0.7c2.3-0.1,4.5,1.1,5.9,3.2l15.1,22.8c3.4,5.2,10.9,3.8,12.6-2.3l7.5-26.9
						c0.7-2.4,2.4-4.4,4.6-5.1l24.7-8.6c5.6-2,6.7-10.1,1.9-13.7l-21.2-16c-1.9-1.4-3.1-3.8-3-6.4l0.1-28.1c0-6.4-6.7-10-11.4-6.1
						L478.3,447z"/>
					<g class="st14">
						<path class="st15" d="M488.7,438.4l-0.1,19.8c0,2.5,1.1,4.9,3,6.4l21.2,17.8c4.8,3.6,3.7,11.7-1.9,13.7l-24.6,6.8
							c-2.2,0.8-4,2.7-4.6,5.1l-6.5,23.2l8,12c3.4,5.2,10.9,3.8,12.6-2.3l7.5-26.9c0.7-2.4,2.4-4.4,4.6-5.1l24.7-8.6
							c5.6-2,6.7-10.1,1.9-13.7l-21.2-16c-1.9-1.4-3.1-3.8-3-6.4l0.1-28.1c0-6.4-6.7-10-11.4-6.1L488.7,438.4z"/>
					</g>
				</g>
				<g>
					<path class="st13" d="M297.7,605.1c-2,1.3-4.5,1.5-6.6,0.4l-23.3-11.7c-5.3-2.7-11.3,2.5-10.1,8.7l5.2,27.4
						c0.5,2.5-0.2,5.1-1.8,6.9l-18,20.7c-4.1,4.7-1.5,12.3,4.3,12.9l25.8,2.5c2.3,0.2,4.4,1.7,5.5,3.9l12.2,24.4
						c2.8,5.6,10.3,5.1,12.8-0.8l10.7-25.8c1-2.3,2.9-4,5.2-4.5l25.5-5.6c5.8-1.3,7.9-9.2,3.6-13.4l-19.1-18.4
						c-1.7-1.7-2.6-4.2-2.2-6.7l3.6-27.9c0.8-6.3-5.4-10.8-10.6-7.5L297.7,605.1z"/>
					<g class="st14">
						<path class="st15" d="M309,597.9l-2.5,19.7c-0.3,2.5,0.5,5,2.2,6.7l18.9,20.2c4.4,4.2,2.3,12.1-3.6,13.4l-25.3,3.8
							c-2.3,0.5-4.3,2.2-5.2,4.5l-9.2,22.2l6.5,12.9c2.8,5.6,10.3,5.1,12.8-0.8l10.7-25.8c1-2.3,2.9-4,5.2-4.5l25.5-5.6
							c5.8-1.3,7.9-9.2,3.6-13.4l-19.1-18.4c-1.7-1.7-2.6-4.2-2.2-6.7l3.6-27.9c0.8-6.3-5.4-10.8-10.6-7.5L309,597.9z"/>
					</g>
				</g>
				<g>
					<path class="st13" d="M693.4,834.3c-0.7,2.3-0.2,4.7,1.4,6.5l17.6,19.2c4,4.4,0.7,11.5-5.6,12.1l-27.7,2.5
						c-2.5,0.2-4.8,1.6-6.2,3.7l-14.9,23c-3.4,5.2-11.4,4.9-13.6-0.6l-9.5-24.1c-0.9-2.2-2.8-3.7-5.2-4.2l-26.9-5
						c-6.1-1.1-7.8-8.5-2.8-12.5l21.9-17.4c2-1.6,3.1-3.9,2.9-6.3l-1.7-26.1c-0.4-5.9,6.6-10.1,11.9-7.1l23,13.3
						c2.1,1.2,4.7,1.3,7,0.3l25.8-11.1c5.9-2.5,11.8,2.3,10.1,8.1L693.4,834.3z"/>
					<g class="st14">
						<path class="st15" d="M697.3,821.4l-18.2,7.8c-2.3,1-5,0.9-7-0.3l-24.7-12.6c-5.2-3-12.2,1.2-11.9,7.1l3.3,25.3
							c0.2,2.4-0.9,4.7-2.9,6.3l-18.8,15l-14.2-2.6c-6.1-1.1-7.8-8.5-2.8-12.5l21.9-17.4c2-1.6,3.1-3.9,2.9-6.3l-1.7-26.1
							c-0.4-5.9,6.6-10.1,11.9-7.1l23,13.3c2.1,1.2,4.7,1.3,7,0.3l25.8-11.1c5.9-2.5,11.8,2.3,10.1,8.1L697.3,821.4z"/>
					</g>
				</g>
				<g>
					<path class="st13" d="M166,435.6c2.4,0.5,4.3,2.1,5,4.3l8.7,24.6c2,5.6,9.8,6,13.3,0.7l15.3-23.3c1.4-2.1,3.7-3.5,6.1-3.7
						l27.3-2.4c6.2-0.5,9.7-7.8,5.8-12.3l-16.8-19.7c-1.5-1.8-2-4.2-1.2-6.6l8.2-26.1c1.9-5.9-3.9-10.8-9.7-8.3l-25.7,11.1
						c-2.3,1-4.9,0.9-6.9-0.4L173.2,360c-5.1-3.1-12.1,1.1-11.8,7.1l1,26.6c0.1,2.4-1,4.8-3,6.4l-21.9,17.6c-5,4-3.6,11.5,2.4,12.7
						L166,435.6z"/>
					<g class="st14">
						<path class="st15" d="M152.8,433l15.5-12.4c2-1.6,3.1-4,3-6.4l0.5-27.7c-0.2-6,6.8-10.3,11.8-7.1l20.8,14.8
							c2,1.2,4.6,1.4,6.9,0.4l22.1-9.6l4.3-13.8c1.9-5.9-3.9-10.8-9.7-8.3l-25.7,11.1c-2.3,1-4.9,0.9-6.9-0.4L173.2,360
							c-5.1-3.1-12.1,1.1-11.8,7.1l1,26.6c0.1,2.4-1,4.8-3,6.4l-21.9,17.6c-5,4-3.6,11.5,2.4,12.7L152.8,433z"/>
					</g>
				</g>
				<g>
					<path class="st13" d="M-74.8,118.3c2.4-0.3,4.4-1.7,5.4-3.9l10.8-23.7c2.5-5.4,10.3-5.1,13.3,0.4l13.2,24.5
						c1.2,2.2,3.4,3.8,5.8,4.2l27,4.8c6.1,1.1,8.9,8.6,4.7,12.7L-13,155.6c-1.7,1.6-2.3,4.1-1.8,6.5l5.9,26.7
						c1.3,6.1-4.8,10.5-10.4,7.4l-24.6-13.3c-2.2-1.2-4.8-1.3-6.9-0.2l-23.3,11.7c-5.3,2.7-11.9-2.1-11.2-8.1l3.3-26.4
						c0.3-2.4-0.6-4.9-2.5-6.6l-20.3-19.4c-4.6-4.4-2.6-11.8,3.5-12.5L-74.8,118.3z"/>
				</g>
				<g>
					<path class="st13" d="M675.5,176.8c-2.4-0.5-4.7,0.3-6.3,2l-17.6,19.2c-4,4.4-11.4,1.7-12.5-4.5l-4.9-27.4
						c-0.4-2.5-2-4.6-4.2-5.8l-24.2-12.9c-5.5-2.9-5.8-11-0.6-13.6l23.2-11.6c2.1-1,3.5-3.1,3.7-5.6l2.6-27.2
						c0.6-6.2,7.8-8.5,12.2-3.9l19.3,20.3c1.7,1.8,4.2,2.7,6.5,2.4l25.8-3.9c5.9-0.9,10.7,5.7,8.1,11.2l-11.3,24.1
						c-1,2.2-0.9,4.8,0.3,7l13.3,24.8c3,5.6-1.2,12-7.2,10.8L675.5,176.8z"/>
					<g class="st14">
						<path class="st15" d="M688.7,179.5l-9.4-17.5c-1.2-2.2-1.3-4.9-0.3-7l10.4-25.7c2.6-5.5-2.2-12.1-8.1-11.2l-24.9,5.5
							c-2.3,0.4-4.8-0.5-6.5-2.4l-16.6-17.4l1.4-14.4c0.6-6.2,7.8-8.5,12.2-3.9l19.3,20.3c1.7,1.8,4.2,2.7,6.5,2.4l25.8-3.9
							c5.9-0.9,10.7,5.7,8.1,11.2l-11.3,24.1c-1,2.2-0.9,4.8,0.3,7l13.3,24.8c3,5.6-1.2,12-7.2,10.8L688.7,179.5z"/>
					</g>
				</g>
			</g>
			<g>
				<circle class="st16" cx="151.8" cy="209.9" r="24.6"/>
				<circle class="st16" cx="64.8" cy="579.6" r="24.6"/>
				<circle class="st16" cx="228.6" cy="841.7" r="24.6"/>
				<circle class="st16" cx="542" cy="735.2" r="24.6"/>
				<circle class="st16" cx="572.7" cy="230.4" r="24.6"/>
				<circle class="st16" cx="356.6" cy="299" r="24.6"/>
			</g>
		</g>
	</g>
	<g>
		<defs>
			<rect id="SVGID_3_" x="783.6" width="1024" height="1024"/>
		</defs>
		<clipPath id="SVGID_4_">
			<use xlink:href="#SVGID_3_"  style="overflow:visible;"/>
		</clipPath>
		<rect x="783.6" class="st17" width="1024" height="1024"/>
		<g class="st18">
			<g>
				<g>
					<g>
						<path class="st2" d="M1144.9,964.6c-9,1.8-17.3,5.2-24.6,9.8c6,1.1,11.7,2.9,17.1,5.4c5.6,2.6,10.8,5.9,15.5,9.8
							c4.3,3.5,8.1,7.6,11.5,12c3.4,4.5,6.2,9.4,8.5,14.7c1.9,4.4,3.3,9.1,4.3,13.9c0.2,0.9,0.4,1.9,0.5,2.8
							c1,6.6,1.1,13.2,0.3,19.5c-0.6,5.2-1.9,10.3-3.6,15.1c-2.3,6.4-5.5,12.4-9.5,17.9c-5.1,7-11.6,13.2-19.1,18
							c8.5,1.6,17.5,1.6,26.5-0.2c38.4-7.6,63.5-44.8,55.9-83.1C1220.7,982,1183.4,957,1144.9,964.6z"/>
						<path class="st3" d="M1164.5,1001.8c3.4,4.5,6.2,9.5,8.5,14.8c4.6-3.6,14.5-9.7,28-8.4
							C1200.9,1008.2,1192.8,993.9,1164.5,1001.8z"/>
						<path class="st3" d="M1137.5,979.9c5.6,2.6,10.8,5.9,15.5,9.8c4.9-3.2,12.7-6.9,22.8-7.1C1175.8,982.6,1159,966,1137.5,979.9z
							"/>
					</g>
					<path class="st2" d="M1367.4,961.7l99,5.2c0,0,23-81.1-79.8-115.9c0,0,3.4,8,6.7,19.8c7.1,25.2,14,67.6-13.2,85.3
						C1376.5,958.4,1372.3,960.3,1367.4,961.7z"/>
					<path class="st4" d="M1380.1,956.1l41.7,2.2c0,0,14-49.2-28.5-87.5C1400.5,896,1407.3,938.4,1380.1,956.1z"/>
					<path class="st3" d="M1200.6,1022.5c-1.5,1.3-0.4,3.8,1.6,3.6c20.6-2.3,88-6.6,143.2,25.1c37.7,21.6,78.8,43.4,132.2,36.5
						c12.6-1.6,25.9-5.5,40.1-12.5c13.5-6.6,27.9-16.1,43.3-29.1c-11.9-43.2-55.4-106.7-137.8-111.4
						C1312.6,928.4,1221.8,1003.4,1200.6,1022.5z"/>
					<path class="st7" d="M1263.1,994.5c3.1-1.7,6.2-3.2,9.4-4.7c3.2-1.5,6.3-2.9,9.5-4.3c6.4-2.8,12.9-5.3,19.4-7.6
						c6.5-2.4,13.1-4.5,19.8-6.4c6.6-2,13.3-3.7,20.1-5.2c6.7-1.5,13.6-2.5,20.4-3.4l5.1-0.6c1.7-0.3,3.4-0.5,5.1-0.7
						c1.7-0.2,3.4-0.5,5.1-0.8c1.7-0.2,3.4-0.5,5.1-0.8c1.7-0.3,3.4-0.5,5.1-0.8c1.7-0.3,3.4-0.6,5.1-0.8l10.2-1.6
						c6.9-1.1,13.8-2,20.9-3.5l0.1-1.3c-6.9-2.2-14-3.6-21.2-4.3c-3.6-0.4-7.2-0.5-10.8-0.7c-3.6,0-7.2,0-10.8,0.2
						c-7.2,0.4-14.3,1.5-21.3,3.2c-7,1.8-13.8,3.9-20.7,5.9c-6.8,2.1-13.6,4.5-20.2,7c-6.6,2.6-13.1,5.5-19.5,8.5
						c-6.4,3.1-12.7,6.4-18.8,9.9c-6.1,3.6-12.1,7.3-17.8,11.5L1263.1,994.5z"/>
				</g>
				<g>
					<g>
						<path class="st2" d="M1144.9-59.4c-9,1.8-17.3,5.2-24.6,9.8c6,1.1,11.7,2.9,17.1,5.4c5.6,2.6,10.8,5.9,15.5,9.8
							c4.3,3.5,8.1,7.6,11.5,12c3.4,4.5,6.2,9.4,8.5,14.7c1.9,4.4,3.3,9.1,4.3,13.9c0.2,0.9,0.4,1.9,0.5,2.8
							c1,6.6,1.1,13.2,0.3,19.5c-0.6,5.2-1.9,10.3-3.6,15.1c-2.3,6.4-5.5,12.4-9.5,17.9c-5.1,7-11.6,13.2-19.1,18
							c8.5,1.6,17.5,1.6,26.5-0.2c38.4-7.6,63.5-44.8,55.9-83.1C1220.7-42,1183.4-67,1144.9-59.4z"/>
						<path class="st3" d="M1174.4,44c-2.3,6.4-5.5,12.4-9.5,17.9c10.4-0.1,27.3-2.9,37.9-18.7C1202.9,43.2,1186.4,50.6,1174.4,44z"
							/>
						<path class="st3" d="M1177.7,9.3c1,6.6,1.1,13.2,0.3,19.6c6.6,0.5,22.9,0.2,29.1-13C1207.1,15.9,1186.5,17.9,1177.7,9.3z"/>
					</g>
					<path class="st4" d="M1437.3,15.7c1.3,2,2.1,4.3,2.6,6.6c2.7,13.7-4.2,25.4-15.5,32.8c-21.2,13.9-12.8,33.2-12.8,33.3
						c-26.6-19.5-31.7-53.6-1.7-73.5c3.5-2.3,7.2-4.4,11.4-5.2c4.1-0.9,8.6-0.4,12.1,1.9C1434.9,12.6,1436.2,14,1437.3,15.7z"/>
					<path class="st3" d="M1200.6-1.5c-1.5,1.3-0.4,3.8,1.6,3.6c20.6-2.3,88-6.6,143.2,25.1c37.7,21.6,78.8,43.4,132.2,36.5
						c12.6-1.6,25.9-5.5,40.1-12.5c13.5-6.6,27.9-16.1,43.3-29.1c-11.9-43.2-55.4-106.7-137.8-111.4
						C1312.6-95.6,1221.8-20.6,1200.6-1.5z"/>
					<path class="st2" d="M1409.4,20.5c1.3,2,2.1,4.3,2.6,6.6c2.7,13.7-4.2,25.4-15.5,32.8c-21.2,13.9-12.8,33.2-12.8,33.3
						c-26.6-19.5-31.7-53.6-1.7-73.5c3.5-2.3,7.3-4.4,11.4-5.2c4.1-0.9,8.6-0.4,12.1,1.9C1407,17.5,1408.4,18.9,1409.4,20.5z"/>
				</g>
				<g>
					<g>
						<path class="st9" d="M733.6,308c1.8-0.3,3.6-0.6,5.3-0.7c1.4-0.1,2.8,0.7,3.3,2c0.6,1.6-0.6,2.8-1.7,3.8
							c-12,10.8-26,23-23.7,40.8c1.1,8.5,5.4,16.4,10.8,23.1c10,12.4,41.4,31.7,59.2,12.1c5.1-5.6,10.8-10.9,16.2-16.2
							c12.7-12.3,26.3-23.7,40.7-34c19.6-14.1,43.8-24,67.5-19.8c15.2,2.7,28.9,11,40.6,21c9.7,8.4,18.4,18.3,24,29.9
							c6.4,13.4,8.4,28.7,7,43.5c-1.6,17.7-8.1,35-19.4,48.7c-11.8,14.3-28.4,24-45.8,30.3c-15.5,5.6-31.4,9.1-47.5,11.7
							c-16.4,2.7-23.2,22.7-11.8,34.8c0.1,0.1,0.2,0.2,0.2,0.3c8.1,8.4,18.6,14.1,29.5,18.2c8.7,3.3,18.5,5.6,27.3,2.6
							c12-4.1,20.8-17.8,24.9-29.2c0.6-1.6,1.1-3.3,1.5-4.9c0.3-1.2,1.2-2.2,2.4-2.4c1.6-0.3,3.2,0.6,3.7,2.2c0.6,1.9,1,3.9,1.2,5.9
							c0.8,5.8,0.5,11.7-0.7,17.6c-1.2,5.9-3.3,11.7-6.6,17.3c-8.3,14-22.9,22.3-39,23.6c-13.6,1.1-27.3-2.6-39.5-8.7
							c-14.7-7.3-27.7-18.4-35.6-32.8c-6.2-11.2-8.9-24-7-36.7c0.5-3.4,1.3-6.7,1.1-10.1c-0.4-4.3-2.5-8.3-4.6-12.1
							c-7.5-13.8-15.2-27.5-22.8-41.3c-2.7-4.9-6.3-15.9-11.1-18.7c-4.7-2.7-11.5,0.4-16.5,0.6c-6.7,0.3-13.3-0.7-19.7-2.7
							c-13.5-4.1-25.6-12.4-35.4-22.5c-14.9-15.4-25.6-36.9-21.2-57.9C694.9,327.3,713.3,311.9,733.6,308z"/>
						<path class="st9" d="M858.7,429.1c-2.9,1-5.6,2.4-8.3,3.9c-2.7,1.5-5.3,3.1-7.8,4.8c-5.1,3.5-9.9,7.4-14.4,11.7
							c-4.5,4.3-8.7,9-12.5,14c-3.8,5-7.3,10.4-10.2,16.1c-6,11.4-10.1,24-12,37.1l-0.2,1.2l-0.1,1.2c-0.1,0.8-0.2,1.6-0.3,2.5
							l-0.2,2.5c-0.1,0.8-0.1,1.6-0.2,2.5l-0.1,2.5c0,0.8,0,1.6,0,2.5c0,0.8,0,1.6,0,2.5l0,2.5l0,1.2l0.1,1.2l0.1,2.5
							c0.1,1.6,0.3,3.3,0.4,4.9c0.4,3.3,0.9,6.5,1.5,9.7c0.3,1.6,0.6,3.2,1,4.8l0.5,2.4l0.6,2.4c0.2,0.8,0.4,1.6,0.6,2.3l0.7,2.3
							l0.7,2.2c0.2,0.6,0.4,1.2,0.6,1.9c0.8,2.5,1.5,5,2.1,7.4c0.2,0.6,0.3,1.2,0.5,1.8l0.4,1.8l0.4,1.8c0.1,0.6,0.3,1.2,0.4,1.8
							l0.3,1.8c0.1,0.6,0.2,1.2,0.3,1.8c0.2,1.2,0.3,2.4,0.5,3.6c0.1,0.6,0.1,1.2,0.1,1.8l0.1,0.9l0,0.9c0,0.6,0.1,1.2,0.1,1.7
							l0,1.7c0,4.6-0.5,9-1.7,13.2c-1.2,4.2-3.1,8.2-5.8,12c-2.7,3.8-6.2,7.3-10.3,10.5c-4.1,3.2-8.9,6.1-13.9,8.6
							c-2.5,1.3-5.2,2.5-7.9,3.6c0,0-0.1,0-0.1,0c-2.3,1-1.9,4.4,0.7,4.7c0,0,0.1,0,0.1,0c3.1,0.3,6.2,0.4,9.3,0.3
							c6.2-0.2,12.6-1.3,18.9-3.3c6.3-2.1,12.5-5.2,18-9.7c2.8-2.2,5.4-4.8,7.7-7.6c2.3-2.8,4.4-5.9,6.1-9.1
							c1.8-3.2,3.2-6.7,4.3-10.1c1.1-3.5,1.9-7,2.4-10.5c0.5-3.5,0.8-7,0.9-10.5c0.1-3.4-0.1-6.9-0.4-10.2
							c-0.6-6.7-1.9-13.2-3.5-19.4l-1.2-4.3l-0.5-1.9c-0.2-0.6-0.3-1.3-0.5-1.9l-0.5-1.9l-0.4-1.9c-0.1-0.6-0.3-1.3-0.4-1.9
							c-0.1-0.6-0.2-1.3-0.4-1.9c-0.3-1.3-0.5-2.5-0.7-3.8c-0.2-1.3-0.4-2.5-0.6-3.8c-0.2-1.3-0.3-2.5-0.5-3.8l-0.2-1.9l-0.1-0.9
							l-0.1-0.9c-0.4-5.1-0.5-10.1-0.2-15.2l0.1-1.9l0.1-1.9c0.1-1.3,0.2-2.5,0.3-3.8c0.3-2.5,0.6-5.1,1-7.6
							c0.1-0.6,0.2-1.3,0.3-1.9c0.1-0.6,0.2-1.3,0.4-1.9l0.4-1.9c0.1-0.6,0.3-1.3,0.4-1.9c0.6-2.5,1.2-5.1,2-7.6
							c0.4-1.3,0.8-2.5,1.1-3.8c0.4-1.3,0.8-2.5,1.3-3.8c0.9-2.5,1.8-5.1,2.8-7.6c2-5,4.3-10.1,6.9-15.1c2.5-5,5.3-10,8.3-14.9
							c1.5-2.5,3.1-4.9,4.7-7.4C855.2,434,856.9,431.5,858.7,429.1z"/>
						<path class="st9" d="M868.1,391.7c-0.4,3.3-1.1,6.5-1.9,9.7c-0.9,3.2-1.9,6.3-3,9.4c-2.3,6.2-5.2,12.2-8.6,18
							c-3.3,5.8-7.2,11.4-11.5,16.6c-4.3,5.3-9.1,10.3-14.3,14.8c-10.4,9.2-22.5,16.7-35.7,21.9l-1.2,0.5l-1.2,0.5
							c-0.8,0.3-1.7,0.6-2.5,0.9l-2.5,0.8c-0.8,0.3-1.7,0.6-2.5,0.8l-2.6,0.8c-0.9,0.3-1.7,0.4-2.6,0.7c-0.9,0.2-1.7,0.4-2.6,0.6
							l-2.6,0.6l-1.3,0.3l-1.3,0.2l-2.6,0.5c-1.7,0.3-3.5,0.5-5.2,0.8c-3.5,0.4-7,0.8-10.5,0.9c-1.8,0.1-3.5,0.2-5.3,0.2l-2.6,0
							l-2.6,0c-0.9,0-1.7,0-2.6-0.1L736,491l-2.5-0.1c-0.7,0-1.4-0.1-2.1-0.1c-2.8-0.2-5.6-0.3-8.3-0.3c-0.7,0-1.4,0-2,0l-2,0
							l-2,0.1c-0.7,0-1.3,0-2,0.1l-2,0.1c-0.7,0-1.3,0.1-2,0.2c-1.3,0.1-2.6,0.3-3.9,0.4c-0.6,0.1-1.3,0.2-1.9,0.3l-0.9,0.1
							l-0.9,0.2c-0.6,0.1-1.2,0.2-1.9,0.4l-1.8,0.4c-4.8,1.2-9.3,2.8-13.3,5.1c-4.1,2.3-7.8,5.3-11.1,9.1c-3.3,3.8-6.1,8.4-8.4,13.5
							c-2.3,5.1-4.1,10.8-5.5,16.8c-0.7,3-1.3,6-1.8,9.1c0,0,0,0.1,0,0.1c-0.4,2.7-4.2,3.1-5.1,0.5c0,0,0-0.1,0-0.1
							c-1.1-3.1-2-6.4-2.6-9.7c-1.3-6.6-1.9-13.5-1.3-20.6c0.6-7.1,2.3-14.4,5.5-21.3c1.6-3.5,3.6-6.8,6-10c2.4-3.2,5-6.1,8-8.8
							c2.9-2.7,6.2-5,9.5-7.1c3.4-2,6.8-3.8,10.4-5.2c3.5-1.5,7.1-2.6,10.7-3.6c3.6-0.9,7.2-1.7,10.8-2.2c7.2-1.1,14.3-1.4,21.2-1.3
							l4.8,0.1l2.1,0.1c0.7,0,1.4,0,2.1,0l2.1,0l2.1,0c0.7,0,1.4,0,2.1-0.1c0.7,0,1.4-0.1,2.1-0.1c1.4,0,2.8-0.2,4.1-0.3
							c1.4-0.1,2.7-0.3,4.1-0.4c1.4-0.2,2.7-0.3,4.1-0.5l2-0.3l1-0.1l1-0.2c5.4-0.9,10.7-2.1,16-3.6l2-0.6l2-0.6
							c1.3-0.4,2.6-0.9,3.9-1.3c2.6-1,5.2-1.9,7.7-3c0.6-0.3,1.3-0.5,1.9-0.8c0.6-0.3,1.3-0.6,1.9-0.9l1.9-0.9
							c0.6-0.3,1.3-0.6,1.9-0.9c2.5-1.2,5-2.6,7.5-4c1.2-0.7,2.5-1.4,3.7-2.2c1.2-0.8,2.4-1.5,3.7-2.3c2.4-1.6,4.8-3.2,7.2-4.9
							c4.8-3.4,9.4-7.1,14-11c4.6-3.9,9.1-8.1,13.5-12.5c2.2-2.2,4.4-4.5,6.6-6.8C863.8,396.6,865.9,394.2,868.1,391.7z"/>
						<path class="st9" d="M875,423.2c-2.8,0.6-5.5,1.5-8.2,2.3c-2.7,0.9-5.3,1.9-7.9,2.9c-5.2,2.1-10.4,4.4-15.4,6.9
							c-5,2.5-9.9,5.3-14.7,8.2c-2.4,1.5-4.8,3-7.1,4.6c-2.3,1.6-4.7,3.2-6.9,4.9c-9.1,6.8-17.8,14.4-25.7,23.1
							c-3.9,4.4-7.7,9-11.1,13.9c-1.7,2.5-3.4,5-5,7.7c-0.4,0.7-0.8,1.3-1.2,2l-1.1,2c-0.4,0.7-0.7,1.4-1.1,2.1
							c-0.4,0.7-0.7,1.4-1.1,2.1c-1.4,2.8-2.6,5.8-3.7,8.8L764,517c-0.3,0.8-0.5,1.6-0.7,2.3l-0.4,1.2l-0.3,1.2l-0.3,1.2l-0.2,0.6
							l-0.1,0.4c-0.5,2.1-1.1,4.1-1.8,6.1c-0.7,2-1.5,4-2.4,6c-3.5,7.8-8.8,15.2-15.4,22.1c-6.6,6.9-14.5,13.2-23.1,19.1
							c-4.3,2.9-8.8,5.8-13.5,8.6c-2.4,1.4-4.7,2.8-7.2,4.1c-2.2,1.2-1.4,4.6,1.2,4.6c0,0,0.1,0,0.1,0c2.9,0,5.7-0.1,8.6-0.3
							c5.7-0.5,11.4-1.4,17-2.7c5.6-1.4,11.2-3.2,16.7-5.5c5.5-2.3,10.8-5.1,15.9-8.5c5.1-3.4,10-7.4,14.4-11.9
							c2.2-2.3,4.3-4.7,6.3-7.3c2-2.6,3.8-5.3,5.5-8.1c3.3-5.6,5.9-11.8,7.8-18.1l0.5-1.7l0.2-0.8l0.3-0.8c0.2-0.5,0.3-1,0.5-1.5
							l0.6-1.5c0.8-2.1,1.7-4.1,2.7-6.2c4-8.2,9.2-16.4,15.1-24.4c5.9-8,12.5-15.9,19.3-23.8c6.9-7.9,14-15.7,21.3-23.7l11-12.1
							C867.5,431.6,871.3,427.5,875,423.2z"/>
						<path class="st9" d="M874.6,437.9c1.4,0.2,2.1-1.6,1-2.4v0c-19.8-14.5-45.6-20.7-69.9-18.3c-19.4,1.9-38.1,9.2-57.6,9.1
							c-26.1,0-51.5-14-66.4-35.4c-13.8-19.6-18.6-44.9-14.6-68.5c0.5-2.9-3.3-4.4-4.9-2c0,0,0,0,0,0.1
							c-11.3,17.4-15.6,39.2-12.3,59.7c3.3,20.5,14.1,39.7,29.6,53.5c13.9,12.4,31.6,20.7,50.1,23.3c22.6,3.2,45.2-1.9,66.5-8.9
							c21.6-7.1,40.6-13.3,63.8-11.7c3.3,0.2,6.6,0.5,9.9,0.9C871.3,437.4,872.9,437.6,874.6,437.9z"/>
					</g>
					<path class="st6" d="M847,472.6c7.4,11.3,35.8,13.3,45.4-1.1c9.6-14.4-8.2-34-25.1-27.8C850.4,450,840.6,462.9,847,472.6z"/>
					<circle class="st10" cx="856.6" cy="464.3" r="9.1"/>
					<path class="st6" d="M817.9,418.7c-5.3-12.4,8.5-37.2,25.8-37.4s23.9,25.5,9.4,36.2C838.6,428.3,822.5,429.4,817.9,418.7z"/>
					<circle class="st10" cx="830.1" cy="415.2" r="9.1"/>
					
						<ellipse transform="matrix(0.8798 -0.4754 0.4754 0.8798 -63.8111 488.5356)" class="st11" cx="934" cy="370.4" rx="8.2" ry="14.9"/>
					
						<ellipse transform="matrix(0.8798 -0.4754 0.4754 0.8798 -78.7064 502.1863)" class="st11" cx="953.6" cy="406.7" rx="6.8" ry="12.3"/>
					
						<ellipse transform="matrix(0.8798 -0.4754 0.4754 0.8798 -52.2162 491.6252)" class="st11" cx="945.9" cy="349.1" rx="6.8" ry="12.3"/>
					
						<ellipse transform="matrix(0.8798 -0.4754 0.4754 0.8798 -67.1063 501.9774)" class="st11" cx="958.9" cy="383.7" rx="4.9" ry="8.9"/>
					
						<ellipse transform="matrix(0.8798 -0.4754 0.4754 0.8798 -57.7946 502.4547)" class="st11" cx="964.5" cy="365.5" rx="3.8" ry="6.8"/>
					
						<ellipse transform="matrix(0.8798 -0.4754 0.4754 0.8798 -65.1387 509.2021)" class="st11" cx="974.2" cy="383.4" rx="3.8" ry="6.8"/>
					
						<ellipse transform="matrix(0.8798 -0.4754 0.4754 0.8798 -75.1009 512.5915)" class="st11" cx="975.9" cy="404.8" rx="4.9" ry="8.9"/>
					
						<ellipse transform="matrix(0.639 -0.7692 0.7692 0.639 -120.8236 851.7255)" class="st12" cx="847" cy="554.6" rx="6.5" ry="11"/>
					
						<ellipse transform="matrix(0.4442 -0.8959 0.8959 0.4442 -23.2562 975.8369)" class="st12" cx="774.8" cy="506.7" rx="11" ry="6.5"/>
					
						<ellipse transform="matrix(0.4442 -0.8959 0.8959 0.4442 -25.3981 1101.5848)" class="st12" cx="875.1" cy="571.3" rx="6.5" ry="11"/>
					
						<ellipse transform="matrix(0.998 -6.288365e-02 6.288365e-02 0.998 -34.8012 58.0399)" class="st12" cx="904.7" cy="581.9" rx="8.8" ry="5.2"/>
					
						<ellipse transform="matrix(0.286 -0.9582 0.9582 0.286 -9.0631 1214.239)" class="st12" cx="810.2" cy="613.2" rx="7.2" ry="4.2"/>
					
						<ellipse transform="matrix(0.4442 -0.8959 0.8959 0.4442 -117.9341 1064.0322)" class="st12" cx="798.6" cy="627.1" rx="7.2" ry="4.2"/>
					
						<ellipse transform="matrix(0.8554 -0.518 0.518 0.8554 -218.3284 502.238)" class="st12" cx="790.2" cy="642.1" rx="5.8" ry="3.4"/>
					
						<ellipse transform="matrix(0.8554 -0.518 0.518 0.8554 -191.7686 463.7603)" class="st12" cx="734.6" cy="575.3" rx="5.8" ry="3.4"/>
					
						<ellipse transform="matrix(0.8554 -0.518 0.518 0.8554 -158.8966 422.8601)" class="st12" cx="677.8" cy="496" rx="5.8" ry="3.4"/>
					
						<ellipse transform="matrix(0.9164 -0.4002 0.4002 0.9164 -100.3958 296.0055)" class="st12" cx="658.6" cy="388.4" rx="4" ry="6.8"/>
					
						<ellipse transform="matrix(7.581805e-02 -0.9971 0.9971 7.581805e-02 276.9557 1020.9269)" class="st12" cx="689.2" cy="361.1" rx="6.8" ry="4"/>
					
						<ellipse transform="matrix(7.581805e-02 -0.9971 0.9971 7.581805e-02 299.8772 1020.1646)" class="st12" cx="700.3" cy="348.3" rx="6.8" ry="4"/>
					
						<ellipse transform="matrix(0.9936 -0.113 0.113 0.9936 -37.911 75.7229)" class="st12" cx="648.8" cy="372.2" rx="3.4" ry="5.8"/>
					
						<ellipse transform="matrix(0.9936 -0.113 0.113 0.9936 -36.1394 76.4038)" class="st12" cx="655.7" cy="356.9" rx="3.4" ry="5.8"/>
					
						<ellipse transform="matrix(0.7139 -0.7002 0.7002 0.7139 -23.4953 590.0241)" class="st12" cx="710.3" cy="323.8" rx="5.8" ry="3.4"/>
					
						<ellipse transform="matrix(0.5669 -0.8238 0.8238 0.5669 27.7346 719.272)" class="st12" cx="697.9" cy="333.3" rx="5.8" ry="3.4"/>
					
						<ellipse transform="matrix(0.4894 -0.8721 0.8721 0.4894 -107.0275 845.5497)" class="st12" cx="668.5" cy="514.2" rx="5.8" ry="3.4"/>
					
						<ellipse transform="matrix(0.8554 -0.518 0.518 0.8554 -196.3008 456.0768)" class="st12" cx="718.6" cy="579.6" rx="5.8" ry="3.4"/>
					
						<ellipse transform="matrix(0.2101 -0.9777 0.9777 0.2101 122.8228 1330.2592)" class="st12" cx="884.6" cy="589.1" rx="5.2" ry="8.8"/>
					
						<ellipse transform="matrix(0.4442 -0.8959 0.8959 0.4442 -41.8 1086.1071)" class="st12" cx="854.4" cy="576.7" rx="5.2" ry="8.8"/>
					
						<ellipse transform="matrix(0.5242 -0.8516 0.8516 0.5242 -85.8606 898.7027)" class="st12" cx="761.4" cy="526.2" rx="8.8" ry="5.2"/>
					
						<ellipse transform="matrix(0.9998 -2.007856e-02 2.007856e-02 0.9998 -9.7016 14.8875)" class="st12" cx="736.5" cy="490.6" rx="8.8" ry="5.2"/>
					
						<ellipse transform="matrix(0.2025 -0.9793 0.9793 0.2025 123.1236 1038.5397)" class="st12" cx="699.2" cy="443.7" rx="5.8" ry="9.9"/>
					
						<ellipse transform="matrix(0.9998 -2.007856e-02 2.007856e-02 0.9998 -9.5471 14.5123)" class="st12" cx="717.9" cy="482.7" rx="8.8" ry="5.2"/>
					
						<ellipse transform="matrix(0.6789 -0.7342 0.7342 0.6789 -93.915 639.2145)" class="st12" cx="683.8" cy="427" rx="5.2" ry="8.8"/>
					
						<ellipse transform="matrix(0.8554 -0.518 0.518 0.8554 -118.9869 403.3869)" class="st12" cx="662.9" cy="414.8" rx="5.2" ry="8.8"/>
					
						<ellipse transform="matrix(0.8554 -0.518 0.518 0.8554 -103.2236 424.6084)" class="st12" cx="708.8" cy="397.2" rx="5.2" ry="8.8"/>
					
						<ellipse transform="matrix(0.943 -0.3329 0.3329 0.943 -84.2031 255.1973)" class="st12" cx="702.7" cy="373.3" rx="5.2" ry="8.8"/>
					
						<ellipse transform="matrix(0.943 -0.3329 0.3329 0.943 -124.6307 260.2625)" class="st12" cx="697.3" cy="493.9" rx="8.8" ry="5.2"/>
					
						<ellipse transform="matrix(0.5242 -0.8516 0.8516 0.5242 -103.5612 909.3427)" class="st12" cx="762" cy="547.4" rx="8.8" ry="5.2"/>
					
						<ellipse transform="matrix(0.7501 -0.6614 0.6614 0.7501 -182.4086 631.3594)" class="st12" cx="744.1" cy="557" rx="8.8" ry="5.2"/>
					
						<ellipse transform="matrix(0.943 -0.3329 0.3329 0.943 -141.2882 297.828)" class="st12" cx="798.6" cy="561.3" rx="5.8" ry="9.8"/>
					
						<ellipse transform="matrix(0.943 -0.3329 0.3329 0.943 -150.0317 301.0728)" class="st12" cx="803.7" cy="588.4" rx="5.8" ry="9.8"/>
					
						<ellipse transform="matrix(0.7501 -0.6614 0.6614 0.7501 -143.5692 755.6364)" class="st12" cx="928" cy="567.8" rx="7.1" ry="4.2"/>
				</g>
			</g>
			<g>
				<g>
					<path class="st13" d="M973.7,783c-1.9-1.5-2.8-3.9-2.4-6.2l4-25.8c0.9-5.9-5.8-10-11.4-6.9l-24.5,13.3
						c-2.2,1.2-4.9,1.3-7.2,0.4L907.1,747c-5.7-2.5-12.2,2.3-10.9,8.1l5.5,25.3c0.5,2.3-0.3,4.7-2,6.4L880,805.8
						c-4.4,4.3-1.7,11.4,4.6,11.9l27.9,2.3c2.5,0.2,4.7,1.6,5.9,3.6l13.1,22.6c3,5.1,11.1,4.7,13.8-0.7l11.7-23.8
						c1.1-2.2,3.2-3.7,5.7-4.2l27.6-5.1c6.3-1.2,8.6-8.5,3.9-12.3L973.7,783z"/>
					<g class="st14">
						<path class="st15" d="M984,791.6l-19.5,3.6c-2.5,0.5-4.6,2-5.7,4.2l-13.5,24.1c-2.7,5.4-10.8,5.8-13.8,0.7l-11.3-22.9
							c-1.2-2-3.4-3.4-5.9-3.6l-24-2L880,805.8c-4.4,4.3-1.7,11.4,4.6,11.9l27.9,2.3c2.5,0.2,4.7,1.6,5.9,3.6l13.1,22.6
							c3,5.1,11.1,4.7,13.8-0.7l11.7-23.8c1.1-2.2,3.2-3.7,5.7-4.2l27.6-5.1c6.3-1.2,8.6-8.5,3.9-12.3L984,791.6z"/>
					</g>
				</g>
				<g>
					<path class="st13" d="M1321.7,605.1c-2,1.3-4.5,1.5-6.6,0.4l-23.3-11.7c-5.3-2.7-11.3,2.5-10.1,8.7l5.2,27.4
						c0.5,2.5-0.2,5.1-1.8,6.9l-18,20.7c-4.1,4.7-1.5,12.3,4.3,12.9l25.8,2.5c2.3,0.2,4.4,1.7,5.5,3.9l12.2,24.4
						c2.8,5.6,10.3,5.1,12.8-0.8l10.7-25.8c1-2.3,2.9-4,5.2-4.5l25.5-5.6c5.8-1.3,7.9-9.2,3.6-13.4l-19.1-18.4
						c-1.7-1.7-2.6-4.2-2.2-6.7l3.6-27.9c0.8-6.3-5.4-10.8-10.6-7.5L1321.7,605.1z"/>
					<g class="st14">
						<path class="st15" d="M1333,597.9l-2.5,19.7c-0.3,2.5,0.5,5,2.2,6.7l18.9,20.2c4.4,4.2,2.3,12.1-3.6,13.4l-25.3,3.8
							c-2.3,0.5-4.3,2.2-5.2,4.5l-9.2,22.2l6.5,12.9c2.8,5.6,10.3,5.1,12.8-0.8l10.7-25.8c1-2.3,2.9-4,5.2-4.5l25.5-5.6
							c5.8-1.3,7.9-9.2,3.6-13.4l-19.1-18.4c-1.7-1.7-2.6-4.2-2.2-6.7l3.6-27.9c0.8-6.3-5.4-10.8-10.6-7.5L1333,597.9z"/>
					</g>
				</g>
				<g>
					<path class="st13" d="M1190,435.6c2.4,0.5,4.3,2.1,5,4.3l8.7,24.6c2,5.6,9.8,6,13.3,0.7l15.3-23.3c1.4-2.1,3.7-3.5,6.1-3.7
						l27.3-2.4c6.2-0.5,9.7-7.8,5.8-12.3l-16.8-19.7c-1.5-1.8-2-4.2-1.2-6.6l8.2-26.1c1.9-5.9-3.9-10.8-9.7-8.3l-25.7,11.1
						c-2.3,1-4.9,0.9-6.9-0.4l-22.2-13.7c-5.1-3.1-12.1,1.1-11.8,7.1l1,26.6c0.1,2.4-1,4.8-3,6.4l-21.9,17.6c-5,4-3.6,11.5,2.4,12.7
						L1190,435.6z"/>
					<g class="st14">
						<path class="st15" d="M1176.8,433l15.5-12.4c2-1.6,3.1-4,3-6.4l0.5-27.7c-0.2-6,6.8-10.3,11.8-7.1l20.8,14.8
							c2,1.2,4.6,1.4,6.9,0.4l22.1-9.6l4.3-13.8c1.9-5.9-3.9-10.8-9.7-8.3l-25.7,11.1c-2.3,1-4.9,0.9-6.9-0.4l-22.2-13.7
							c-5.1-3.1-12.1,1.1-11.8,7.1l1,26.6c0.1,2.4-1,4.8-3,6.4l-21.9,17.6c-5,4-3.6,11.5,2.4,12.7L1176.8,433z"/>
					</g>
				</g>
				<g>
					<path class="st13" d="M949.2,118.3c2.4-0.3,4.4-1.7,5.4-3.9l10.8-23.7c2.5-5.4,10.3-5.1,13.3,0.4l13.2,24.5
						c1.2,2.2,3.4,3.8,5.8,4.2l27,4.8c6.1,1.1,8.9,8.6,4.7,12.7l-18.5,18.1c-1.7,1.6-2.3,4.1-1.8,6.5l5.9,26.7
						c1.3,6.1-4.8,10.5-10.4,7.4l-24.6-13.3c-2.2-1.2-4.8-1.3-6.9-0.2l-23.3,11.7c-5.3,2.7-11.9-2.1-11.2-8.1l3.3-26.4
						c0.3-2.4-0.6-4.9-2.5-6.6l-20.3-19.4c-4.6-4.4-2.6-11.8,3.5-12.5L949.2,118.3z"/>
					<g class="st14">
						<path class="st15" d="M935.9,119.8l14.3,13.7c1.8,1.8,2.8,4.2,2.5,6.6l-1.9,27.6c-0.7,6,5.9,10.8,11.2,8.1l22-13
							c2.1-1.1,4.7-1,6.9,0.2l21.1,11.5l3.1,14.1c1.3,6.1-4.8,10.5-10.4,7.4l-24.6-13.3c-2.2-1.2-4.8-1.3-6.9-0.2l-23.3,11.7
							c-5.3,2.7-11.9-2.1-11.2-8.1l3.3-26.4c0.3-2.4-0.6-4.9-2.5-6.6l-20.3-19.4c-4.6-4.4-2.6-11.8,3.5-12.5L935.9,119.8z"/>
					</g>
				</g>
			</g>
			<g>
				<circle class="st16" cx="1175.8" cy="209.9" r="24.6"/>
				<circle class="st16" cx="1088.8" cy="579.6" r="24.6"/>
				<circle class="st16" cx="852.2" cy="932.9" r="24.6"/>
				<circle class="st16" cx="1252.6" cy="841.7" r="24.6"/>
				<circle class="st16" cx="1380.6" cy="299" r="24.6"/>
				<circle class="st16" cx="851.2" cy="185.3" r="24.6"/>
			</g>
		</g>
	</g>
</g>
<g id="Estrella_1">
</g>
<g id="Estrella_2">
</g>
<g id="Estrella_3">
</g>
<g id="Estrella_4">
</g>
<g id="Estrella_5">
</g>
<g id="Estrella_6">
</g>
</svg>
