<?xml version="1.0" encoding="utf-8"?>
<!-- Generator: Adobe Illustrator 24.1.1, SVG Export Plug-In . SVG Version: 6.00 Build 0)  -->
<svg version="1.1" id="Layer_1" xmlns="http://www.w3.org/2000/svg" xmlns:xlink="http://www.w3.org/1999/xlink" x="0px" y="0px"
	 viewBox="0 0 160 244" style="enable-background:new 0 0 160 244;" xml:space="preserve">
<style type="text/css">
	.st0{fill:#FFFFFF;}
	.st1{fill:#FED286;}
	.st2{fill:#F8B263;stroke:#F8B263;stroke-width:4;stroke-miterlimit:10;}
	.st3{fill:#F8B263;}
	.st4{fill-rule:evenodd;clip-rule:evenodd;fill:#8D5329;}
	.st5{fill-rule:evenodd;clip-rule:evenodd;fill:#419D36;}
	.st6{fill-rule:evenodd;clip-rule:evenodd;fill:#43AC3C;}
	.st7{fill:#43AC3C;}
</style>
<g>
	<rect class="st1" width="160" height="244"/>
	<g>
		<path class="st2" d="M70.3,131.9c0-3.4,0.5-6.7,1.6-9.9c1.1-3.2,2.4-6.3,4-9.4s3.3-6.1,5.1-9.2s3.5-6.2,5.1-9.3
			c1.6-3.1,2.9-6.3,3.9-9.6c1-3.3,1.5-6.8,1.5-10.4c0-5.9-1.6-10.3-4.8-13.2s-7.7-4.3-13.5-4.3c-2.3,0-4.7,0.6-7.2,1.7
			c-2.5,1.1-4.4,2.7-5.6,4.8c-0.7-0.1-1.2-0.5-1.4-1c-0.3-0.6-0.5-1.2-0.5-1.9c-0.1-0.7-0.1-1.3,0-1.9c0.1-0.6,0.1-1,0.1-1.2
			c0-1.8,0.6-3.4,1.7-4.7c1.1-1.3,2.6-2.4,4.3-3.2s3.5-1.4,5.4-1.9s3.6-0.7,5.2-0.7c4.3,0,8.1,0.9,11.3,2.6c3.2,1.8,6,4.1,8.2,7
			s3.9,6.1,5,9.7s1.7,7.2,1.7,11c0,4.3-0.7,8.8-2.1,13.5c-1.4,4.7-3.2,9.2-5.5,13.7c-2.2,4.5-4.5,8.8-7,13
			c-2.4,4.2-4.7,7.9-6.7,11.3c0.2,0.5,0.5,1,0.9,1.5c0.3,0.6,1.1,1.1,2.2,1.5c1.1,0.5,2.8,0.9,4.9,1.4c2.1,0.5,4.9,0.9,8.4,1.4
			c0.6,0,1.1,0.2,1.5,0.7c0.5,0.5,0.8,1,1.1,1.6s0.5,1.3,0.6,2c0.1,0.8,0.2,1.4,0.2,1.9c0,1-0.4,1.7-1.1,2.1
			c-0.7,0.4-1.7,0.7-2.8,0.9s-2.2,0.2-3.3,0.2c-1.1-0.1-2-0.1-2.6-0.1c-1.7,0-3.7-0.1-6-0.4c-2.3-0.3-4.4-0.9-6.5-1.7
			c-2-0.9-3.8-2-5.2-3.5C71,136.4,70.3,134.4,70.3,131.9z M88.2,190.9c0-2,0.6-3.7,1.9-4.9c1.3-1.2,2.8-1.8,4.8-1.8
			c1.8,0,3.1,0.8,3.9,2.5c0.8,1.6,1.2,3.3,1.2,4.9c0,1.3-0.4,2.5-1.3,3.8c-0.9,1.3-2.1,2-3.8,2c-2.3,0-4-0.6-5-1.8
			C88.8,194.4,88.2,192.8,88.2,190.9z"/>
	</g>
	<g>
		<path class="st3" d="M146,8.9c3.1,0,5.6,2.5,5.6,5.6v215c0,3.1-2.5,5.6-5.6,5.6H14.2c-3.1,0-5.6-2.5-5.6-5.6v-215
			c0-3.1,2.5-5.6,5.6-5.6H146 M146,6.5H14.2c-4.4,0-8,3.6-8,8v214.9c0,4.4,3.6,8,8,8H146c4.4,0,8-3.6,8-8v-215
			C154,10.1,150.4,6.5,146,6.5L146,6.5z"/>
	</g>
</g>
</svg>
