<?xml version="1.0" encoding="utf-8"?>
<!-- Generator: Adobe Illustrator 24.1.1, SVG Export Plug-In . SVG Version: 6.00 Build 0)  -->
<svg version="1.1" id="Layer_1" xmlns="http://www.w3.org/2000/svg" xmlns:xlink="http://www.w3.org/1999/xlink" x="0px" y="0px"
	 viewBox="0 0 160 244" style="enable-background:new 0 0 160 244;" xml:space="preserve">
<style type="text/css">
	.st0{fill:#FFFFFF;}
	.st1{fill:#EDF4F5;}
	.st2{fill:#DEEDF2;}
	.st3{fill:#FED373;}
	.st4{fill:#FCDF75;}
	.st5{fill:#76AFDF;}
	.st6{fill:#3F8ECC;}
</style>
<rect class="st0" width="160" height="244"/>
<path class="st1" d="M80.5,22.3c33,0,59.8,26.8,59.8,59.8s-26.8,59.8-59.8,59.8s-59.8-26.8-59.8-59.8S47.5,22.3,80.5,22.3
	 M80.5,21.3c-33.6,0-60.8,27.2-60.8,60.8s27.2,60.8,60.8,60.8s60.8-27.2,60.8-60.8S114.1,21.3,80.5,21.3L80.5,21.3z"/>
<g>
	<path class="st2" d="M90.1,70.3H70.9c-3.8,0-7,3.1-7,7v38.1c0,3.8,3.1,7,7,7h19.2c3.8,0,7-3.1,7-7V77.3
		C97.1,73.4,94,70.3,90.1,70.3z"/>
	<path class="st1" d="M84.1,70.3H70.9c-3.8,0-7,3.1-7,7v38.1c0,3.8,3.1,7,7,7h13.2c3.8,0,7-3.1,7-7V77.3
		C91.1,73.4,88,70.3,84.1,70.3z"/>
	<path class="st3" d="M91.6,61.8H69.4v-2.9c0-2.3,1.9-4.2,4.2-4.2h13.8c2.3,0,4.2,1.9,4.2,4.2V61.8z"/>
	<path class="st4" d="M87.9,61.8H69.4v-2.9c0-2.3,1.9-4.2,4.2-4.2h10.1c2.3,0,4.2,1.9,4.2,4.2V61.8z"/>
	<path class="st4" d="M85.7,54.7H75.3c0.2-0.6,0.4-1.3,0.5-2.1c0.3-1.8,0.1-3.4-0.2-4.6c-0.4-1.5,0-3.1,0.9-4.3
		c0.1-0.1,0.2-0.3,0.3-0.4c0.9-0.9,2.3-1.5,3.7-1.5h0c2.2,0,4,1.3,4.8,3.2c0.4,0.9,0.4,2,0.2,3c-0.2,1.1-0.4,2.4-0.3,4
		C85.3,53,85.5,53.9,85.7,54.7z"/>
	<path class="st3" d="M85.7,54.7H75.3c0.2-0.6,0.4-1.3,0.5-2.1c0.3-1.8,0.1-3.4-0.2-4.6c-0.4-1.5,0-3.1,0.9-4.3
		c0.1-0.1,0.2-0.3,0.3-0.4c0.9-0.9,2.3-1.5,3.7-1.5h0c2.2,0,4,1.3,4.8,3.2c0.4,0.9,0.4,2,0.2,3c-0.2,1.1-0.4,2.4-0.3,4
		C85.3,53,85.5,53.9,85.7,54.7z"/>
	<path class="st4" d="M83.7,54.7h-8.4c0.2-0.6,0.3-1.3,0.4-2.1c0.2-1.8,0-3.4-0.2-4.6c-0.3-1.5,0-3.1,0.7-4.3
		c0.1-0.1,0.2-0.3,0.3-0.4c0.8-0.9,1.8-1.5,3-1.5h0c1.7,0,3.2,1.3,3.9,3.2c0.3,0.9,0.3,2,0.1,3c-0.2,1.1-0.3,2.4-0.2,4
		C83.3,53,83.5,53.9,83.7,54.7z"/>
	<path class="st5" d="M73.9,88.6h-5c-0.7,0-1.3-0.6-1.3-1.3l0,0c0-0.7,0.6-1.3,1.3-1.3h5c0.7,0,1.3,0.6,1.3,1.3l0,0
		C75.1,88.1,74.6,88.6,73.9,88.6z"/>
	<path class="st5" d="M73.9,98.8h-5c-0.7,0-1.3-0.6-1.3-1.3l0,0c0-0.7,0.6-1.3,1.3-1.3h5c0.7,0,1.3,0.6,1.3,1.3l0,0
		C75.1,98.3,74.6,98.8,73.9,98.8z"/>
	<path class="st5" d="M73.9,109h-5c-0.7,0-1.3-0.6-1.3-1.3l0,0c0-0.7,0.6-1.3,1.3-1.3h5c0.7,0,1.3,0.6,1.3,1.3l0,0
		C75.1,108.5,74.6,109,73.9,109z"/>
	<path class="st5" d="M73.9,119.2h-5c-0.7,0-1.3-0.6-1.3-1.3l0,0c0-0.7,0.6-1.3,1.3-1.3h5c0.7,0,1.3,0.6,1.3,1.3l0,0
		C75.1,118.7,74.6,119.2,73.9,119.2z"/>
	<path class="st5" d="M73.9,79.5h-5c-0.7,0-1.3-0.6-1.3-1.3v0c0-0.7,0.6-1.3,1.3-1.3h5c0.7,0,1.3,0.6,1.3,1.3v0
		C75.1,78.9,74.6,79.5,73.9,79.5z"/>
	<path class="st6" d="M93.4,70.3H67.6c-1.1,0-2.1-0.9-2.1-2.1v-4.6c0-1.1,0.9-2.1,2.1-2.1h25.8c1.1,0,2.1,0.9,2.1,2.1v4.6
		C95.5,69.4,94.5,70.3,93.4,70.3z"/>
	<path class="st5" d="M89,70.3H67.6c-1.1,0-2.1-0.9-2.1-2.1v-4.6c0-1.1,0.9-2.1,2.1-2.1H89c1.1,0,2.1,0.9,2.1,2.1v4.6
		C91.1,69.4,90.1,70.3,89,70.3z"/>
</g>
</svg>
